<svg width="24" height="24" xmlns="http://www.w3.org/2000/svg">
 <!-- Created with Method Draw - http://github.com/duopixel/Method-Draw/ -->

 <g>
  <title>background</title>
  <rect fill="none" id="canvas_background" height="26" width="26" y="-1" x="-1"/>
  <g display="none" overflow="visible" y="0" x="0" height="100%" width="100%" id="canvasGrid">
   <rect fill="url(#gridpattern)" stroke-width="0" y="0" x="0" height="100%" width="100%"/>
  </g>
 </g>
 <g>
  <title>Layer 1</title>
  <ellipse stroke="#ffa800" ry="11.06239" rx="11.06239" id="svg_1" cy="11.95729" cx="12.09375" stroke-width="1.5" fill="#2f4858"/>
  <g stroke="null" id="svg_7">
   <path stroke="null" id="svg_6" fill="#FFA800" d="m17.93437,11.96718c0,0.36474 -0.28863,0.65654 -0.64938,0.65654c-2.56149,-0.01458 -4.64676,2.06442 -4.66843,4.65411c0,0.36474 -0.28859,0.65654 -0.64938,0.65654c-0.36079,0 -0.64938,-0.2918 -0.64938,-0.65654c-0.02167,-2.58968 -2.10693,-4.66869 -4.66842,-4.65411c-0.36077,0 -0.64939,-0.2918 -0.64939,-0.65654c0,-0.36474 0.28862,-0.65654 0.64939,-0.65654c2.56149,0.01458 4.64675,-2.06444 4.66842,-4.65411c0,-0.36474 0.28859,-0.65654 0.64938,-0.65654c0.36079,0 0.64938,0.2918 0.64938,0.65654c0.02167,2.58238 2.10694,4.66869 4.66843,4.65411c0.36075,0 0.64938,0.2918 0.64938,0.65654zm-9.33567,0c1.56091,-0.57128 2.79877,-1.81891 3.36904,-3.39228c0.5708,1.57102 1.80832,2.81984 3.369,3.39187c-1.56094,0.57095 -2.79894,1.81816 -3.36956,3.39119c-0.5705,-1.57269 -1.80806,-2.81964 -3.36848,-3.39078z" clip-rule="evenodd" fill-rule="evenodd"/>
  </g>
 </g>
</svg>